<svg xmlns="http://www.w3.org/2000/svg" xmlns:xlink="http://www.w3.org/1999/xlink" width="500" zoomAndPan="magnify" viewBox="0 0 375 374.999991" height="500" preserveAspectRatio="xMidYMid meet" version="1.0"><defs><g/><clipPath id="4d16c2919b"><path d="M 56.375 170 L 62 170 L 62 205 L 56.375 205 Z M 56.375 170 " clip-rule="nonzero"/></clipPath><clipPath id="686104d432"><path d="M 61.34375 171.640625 C 61.34375 170.773438 60.164062 170.53125 59.816406 171.328125 C 57.589844 176.257812 56.375 181.738281 56.375 187.5 C 56.375 193.261719 57.589844 198.746094 59.816406 203.671875 C 60.164062 204.472656 61.34375 204.195312 61.34375 203.359375 Z M 61.34375 171.640625 " clip-rule="nonzero"/></clipPath><linearGradient x1="0.00000532679" gradientTransform="matrix(0.3475, 0, 0, 0.347043, 56.37453, 147.833736)" y1="114.286003" x2="14.300005" gradientUnits="userSpaceOnUse" y2="114.286003" id="27fc1c9de4"><stop stop-opacity="1" stop-color="rgb(34.899902%, 56.498718%, 100%)" offset="0"/><stop stop-opacity="1" stop-color="rgb(35.00061%, 56.565857%, 100%)" offset="0.015625"/><stop stop-opacity="1" stop-color="rgb(35.202026%, 56.70166%, 100%)" offset="0.03125"/><stop stop-opacity="1" stop-color="rgb(35.403442%, 56.835938%, 100%)" offset="0.046875"/><stop stop-opacity="1" stop-color="rgb(35.606384%, 56.970215%, 100%)" offset="0.0625"/><stop stop-opacity="1" stop-color="rgb(35.8078%, 57.104492%, 100%)" offset="0.078125"/><stop stop-opacity="1" stop-color="rgb(36.009216%, 57.240295%, 100%)" offset="0.09375"/><stop stop-opacity="1" stop-color="rgb(36.212158%, 57.374573%, 100%)" offset="0.109375"/><stop stop-opacity="1" stop-color="rgb(36.413574%, 57.50885%, 100%)" offset="0.125"/><stop stop-opacity="1" stop-color="rgb(36.61499%, 57.643127%, 100%)" offset="0.140625"/><stop stop-opacity="1" stop-color="rgb(36.817932%, 57.777405%, 100%)" offset="0.15625"/><stop stop-opacity="1" stop-color="rgb(37.019348%, 57.913208%, 100%)" offset="0.171875"/><stop stop-opacity="1" stop-color="rgb(37.22229%, 58.047485%, 100%)" offset="0.1875"/><stop stop-opacity="1" stop-color="rgb(37.423706%, 58.181763%, 100%)" offset="0.203125"/><stop stop-opacity="1" stop-color="rgb(37.625122%, 58.31604%, 100%)" offset="0.21875"/><stop stop-opacity="1" stop-color="rgb(37.828064%, 58.451843%, 100%)" offset="0.234375"/><stop stop-opacity="1" stop-color="rgb(38.02948%, 58.586121%, 100%)" offset="0.25"/><stop stop-opacity="1" stop-color="rgb(38.230896%, 58.720398%, 100%)" offset="0.265625"/><stop stop-opacity="1" stop-color="rgb(38.433838%, 58.854675%, 100%)" offset="0.28125"/><stop stop-opacity="1" stop-color="rgb(38.635254%, 58.990479%, 100%)" offset="0.296875"/><stop stop-opacity="1" stop-color="rgb(38.83667%, 59.124756%, 100%)" offset="0.3125"/><stop stop-opacity="1" stop-color="rgb(39.039612%, 59.259033%, 100%)" offset="0.328125"/><stop stop-opacity="1" stop-color="rgb(39.241028%, 59.393311%, 100%)" offset="0.34375"/><stop stop-opacity="1" stop-color="rgb(39.442444%, 59.529114%, 100%)" offset="0.359375"/><stop stop-opacity="1" stop-color="rgb(39.645386%, 59.663391%, 100%)" offset="0.375"/><stop stop-opacity="1" stop-color="rgb(39.846802%, 59.797668%, 100%)" offset="0.390625"/><stop stop-opacity="1" stop-color="rgb(40.049744%, 59.931946%, 100%)" offset="0.40625"/><stop stop-opacity="1" stop-color="rgb(40.25116%, 60.067749%, 100%)" offset="0.421875"/><stop stop-opacity="1" stop-color="rgb(40.452576%, 60.202026%, 100%)" offset="0.4375"/><stop stop-opacity="1" stop-color="rgb(40.655518%, 60.336304%, 100%)" offset="0.453125"/><stop stop-opacity="1" stop-color="rgb(40.856934%, 60.470581%, 100%)" offset="0.46875"/><stop stop-opacity="1" stop-color="rgb(41.05835%, 60.604858%, 100%)" offset="0.484375"/><stop stop-opacity="1" stop-color="rgb(41.261292%, 60.740662%, 100%)" offset="0.5"/><stop stop-opacity="1" stop-color="rgb(41.462708%, 60.874939%, 100%)" offset="0.515625"/><stop stop-opacity="1" stop-color="rgb(41.664124%, 61.009216%, 100%)" offset="0.53125"/><stop stop-opacity="1" stop-color="rgb(41.867065%, 61.143494%, 100%)" offset="0.546875"/><stop stop-opacity="1" stop-color="rgb(42.068481%, 61.279297%, 100%)" offset="0.5625"/><stop stop-opacity="1" stop-color="rgb(42.269897%, 61.413574%, 100%)" offset="0.578125"/><stop stop-opacity="1" stop-color="rgb(42.472839%, 61.547852%, 100%)" offset="0.59375"/><stop stop-opacity="1" stop-color="rgb(42.674255%, 61.682129%, 100%)" offset="0.609375"/><stop stop-opacity="1" stop-color="rgb(42.877197%, 61.817932%, 100%)" offset="0.625"/><stop stop-opacity="1" stop-color="rgb(43.078613%, 61.952209%, 100%)" offset="0.640625"/><stop stop-opacity="1" stop-color="rgb(43.280029%, 62.086487%, 100%)" offset="0.65625"/><stop stop-opacity="1" stop-color="rgb(43.482971%, 62.220764%, 100%)" offset="0.671875"/><stop stop-opacity="1" stop-color="rgb(43.684387%, 62.356567%, 100%)" offset="0.6875"/><stop stop-opacity="1" stop-color="rgb(43.885803%, 62.490845%, 100%)" offset="0.703125"/><stop stop-opacity="1" stop-color="rgb(44.088745%, 62.625122%, 100%)" offset="0.71875"/><stop stop-opacity="1" stop-color="rgb(44.290161%, 62.759399%, 100%)" offset="0.734375"/><stop stop-opacity="1" stop-color="rgb(44.491577%, 62.895203%, 100%)" offset="0.75"/><stop stop-opacity="1" stop-color="rgb(44.694519%, 63.02948%, 100%)" offset="0.765625"/><stop stop-opacity="1" stop-color="rgb(44.895935%, 63.163757%, 100%)" offset="0.78125"/><stop stop-opacity="1" stop-color="rgb(45.097351%, 63.298035%, 100%)" offset="0.796875"/><stop stop-opacity="1" stop-color="rgb(45.300293%, 63.433838%, 100%)" offset="0.8125"/><stop stop-opacity="1" stop-color="rgb(45.501709%, 63.568115%, 100%)" offset="0.828125"/><stop stop-opacity="1" stop-color="rgb(45.704651%, 63.702393%, 100%)" offset="0.84375"/><stop stop-opacity="1" stop-color="rgb(45.906067%, 63.83667%, 100%)" offset="0.859375"/><stop stop-opacity="1" stop-color="rgb(46.107483%, 63.970947%, 100%)" offset="0.875"/><stop stop-opacity="1" stop-color="rgb(46.310425%, 64.10675%, 100%)" offset="0.890625"/><stop stop-opacity="1" stop-color="rgb(46.511841%, 64.241028%, 100%)" offset="0.90625"/><stop stop-opacity="1" stop-color="rgb(46.713257%, 64.375305%, 100%)" offset="0.921875"/><stop stop-opacity="1" stop-color="rgb(46.916199%, 64.509583%, 100%)" offset="0.9375"/><stop stop-opacity="1" stop-color="rgb(47.117615%, 64.645386%, 100%)" offset="0.953125"/><stop stop-opacity="1" stop-color="rgb(47.319031%, 64.779663%, 100%)" offset="0.96875"/><stop stop-opacity="1" stop-color="rgb(47.610474%, 64.971924%, 100%)" offset="1"/></linearGradient><clipPath id="0b25f2f770"><path d="M 63 162 L 74 162 L 74 213 L 63 213 Z M 63 162 " clip-rule="nonzero"/></clipPath><clipPath id="996bdb4518"><path d="M 73.75 163.449219 C 73.75 162.6875 72.8125 162.375 72.324219 162.964844 C 67.007812 169.699219 63.8125 178.234375 63.8125 187.5 C 63.8125 196.765625 66.972656 205.269531 72.324219 212.035156 C 72.777344 212.625 73.75 212.3125 73.75 211.550781 Z M 73.75 163.449219 " clip-rule="nonzero"/></clipPath><linearGradient x1="21.400006" gradientTransform="matrix(0.3475, 0, 0, 0.347043, 56.37453, 147.833736)" y1="114.286003" x2="50.000002" gradientUnits="userSpaceOnUse" y2="114.286003" id="81f2bbe704"><stop stop-opacity="1" stop-color="rgb(47.799683%, 65.098572%, 100%)" offset="0"/><stop stop-opacity="1" stop-color="rgb(47.897339%, 65.164185%, 100%)" offset="0.015625"/><stop stop-opacity="1" stop-color="rgb(48.100281%, 65.301514%, 100%)" offset="0.03125"/><stop stop-opacity="1" stop-color="rgb(48.309326%, 65.441895%, 100%)" offset="0.046875"/><stop stop-opacity="1" stop-color="rgb(48.519897%, 65.582275%, 100%)" offset="0.0625"/><stop stop-opacity="1" stop-color="rgb(48.728943%, 65.724182%, 100%)" offset="0.078125"/><stop stop-opacity="1" stop-color="rgb(48.939514%, 65.864563%, 100%)" offset="0.09375"/><stop stop-opacity="1" stop-color="rgb(49.14856%, 66.00647%, 100%)" offset="0.109375"/><stop stop-opacity="1" stop-color="rgb(49.359131%, 66.146851%, 100%)" offset="0.125"/><stop stop-opacity="1" stop-color="rgb(49.568176%, 66.287231%, 100%)" offset="0.140625"/><stop stop-opacity="1" stop-color="rgb(49.778748%, 66.429138%, 100%)" offset="0.15625"/><stop stop-opacity="1" stop-color="rgb(49.987793%, 66.569519%, 100%)" offset="0.171875"/><stop stop-opacity="1" stop-color="rgb(50.198364%, 66.7099%, 100%)" offset="0.1875"/><stop stop-opacity="1" stop-color="rgb(50.40741%, 66.851807%, 100%)" offset="0.203125"/><stop stop-opacity="1" stop-color="rgb(50.617981%, 66.992188%, 100%)" offset="0.21875"/><stop stop-opacity="1" stop-color="rgb(50.827026%, 67.132568%, 100%)" offset="0.234375"/><stop stop-opacity="1" stop-color="rgb(51.037598%, 67.274475%, 100%)" offset="0.25"/><stop stop-opacity="1" stop-color="rgb(51.246643%, 67.414856%, 100%)" offset="0.265625"/><stop stop-opacity="1" stop-color="rgb(51.457214%, 67.555237%, 100%)" offset="0.28125"/><stop stop-opacity="1" stop-color="rgb(51.66626%, 67.697144%, 100%)" offset="0.296875"/><stop stop-opacity="1" stop-color="rgb(51.876831%, 67.837524%, 100%)" offset="0.3125"/><stop stop-opacity="1" stop-color="rgb(52.085876%, 67.977905%, 100%)" offset="0.328125"/><stop stop-opacity="1" stop-color="rgb(52.296448%, 68.119812%, 100%)" offset="0.34375"/><stop stop-opacity="1" stop-color="rgb(52.505493%, 68.260193%, 100%)" offset="0.359375"/><stop stop-opacity="1" stop-color="rgb(52.716064%, 68.400574%, 100%)" offset="0.375"/><stop stop-opacity="1" stop-color="rgb(52.92511%, 68.54248%, 100%)" offset="0.390625"/><stop stop-opacity="1" stop-color="rgb(53.135681%, 68.682861%, 100%)" offset="0.40625"/><stop stop-opacity="1" stop-color="rgb(53.344727%, 68.823242%, 100%)" offset="0.421875"/><stop stop-opacity="1" stop-color="rgb(53.555298%, 68.965149%, 100%)" offset="0.4375"/><stop stop-opacity="1" stop-color="rgb(53.764343%, 69.10553%, 100%)" offset="0.453125"/><stop stop-opacity="1" stop-color="rgb(53.974915%, 69.245911%, 100%)" offset="0.46875"/><stop stop-opacity="1" stop-color="rgb(54.18396%, 69.387817%, 100%)" offset="0.484375"/><stop stop-opacity="1" stop-color="rgb(54.394531%, 69.528198%, 100%)" offset="0.5"/><stop stop-opacity="1" stop-color="rgb(54.603577%, 69.670105%, 100%)" offset="0.515625"/><stop stop-opacity="1" stop-color="rgb(54.814148%, 69.810486%, 100%)" offset="0.53125"/><stop stop-opacity="1" stop-color="rgb(55.023193%, 69.950867%, 100%)" offset="0.546875"/><stop stop-opacity="1" stop-color="rgb(55.233765%, 70.092773%, 100%)" offset="0.5625"/><stop stop-opacity="1" stop-color="rgb(55.44281%, 70.233154%, 100%)" offset="0.578125"/><stop stop-opacity="1" stop-color="rgb(55.653381%, 70.373535%, 100%)" offset="0.59375"/><stop stop-opacity="1" stop-color="rgb(55.862427%, 70.515442%, 100%)" offset="0.609375"/><stop stop-opacity="1" stop-color="rgb(56.071472%, 70.655823%, 100%)" offset="0.625"/><stop stop-opacity="1" stop-color="rgb(56.282043%, 70.796204%, 100%)" offset="0.640625"/><stop stop-opacity="1" stop-color="rgb(56.491089%, 70.93811%, 100%)" offset="0.65625"/><stop stop-opacity="1" stop-color="rgb(56.70166%, 71.078491%, 100%)" offset="0.671875"/><stop stop-opacity="1" stop-color="rgb(56.910706%, 71.218872%, 100%)" offset="0.6875"/><stop stop-opacity="1" stop-color="rgb(57.121277%, 71.360779%, 100%)" offset="0.703125"/><stop stop-opacity="1" stop-color="rgb(57.330322%, 71.50116%, 100%)" offset="0.71875"/><stop stop-opacity="1" stop-color="rgb(57.540894%, 71.641541%, 100%)" offset="0.734375"/><stop stop-opacity="1" stop-color="rgb(57.749939%, 71.783447%, 100%)" offset="0.75"/><stop stop-opacity="1" stop-color="rgb(57.96051%, 71.923828%, 100%)" offset="0.765625"/><stop stop-opacity="1" stop-color="rgb(58.169556%, 72.064209%, 100%)" offset="0.78125"/><stop stop-opacity="1" stop-color="rgb(58.380127%, 72.206116%, 100%)" offset="0.796875"/><stop stop-opacity="1" stop-color="rgb(58.589172%, 72.346497%, 100%)" offset="0.8125"/><stop stop-opacity="1" stop-color="rgb(58.799744%, 72.486877%, 100%)" offset="0.828125"/><stop stop-opacity="1" stop-color="rgb(59.008789%, 72.628784%, 100%)" offset="0.84375"/><stop stop-opacity="1" stop-color="rgb(59.21936%, 72.769165%, 100%)" offset="0.859375"/><stop stop-opacity="1" stop-color="rgb(59.428406%, 72.909546%, 100%)" offset="0.875"/><stop stop-opacity="1" stop-color="rgb(59.638977%, 73.051453%, 100%)" offset="0.890625"/><stop stop-opacity="1" stop-color="rgb(59.848022%, 73.191833%, 100%)" offset="0.90625"/><stop stop-opacity="1" stop-color="rgb(60.058594%, 73.33374%, 100%)" offset="0.921875"/><stop stop-opacity="1" stop-color="rgb(60.267639%, 73.474121%, 100%)" offset="0.9375"/><stop stop-opacity="1" stop-color="rgb(60.47821%, 73.614502%, 100%)" offset="0.953125"/><stop stop-opacity="1" stop-color="rgb(60.687256%, 73.756409%, 100%)" offset="0.96875"/><stop stop-opacity="1" stop-color="rgb(60.897827%, 73.89679%, 100%)" offset="0.984375"/><stop stop-opacity="1" stop-color="rgb(61.100769%, 74.032593%, 100%)" offset="1"/></linearGradient><clipPath id="ed8cab597b"><path d="M 71 153 L 92 153 L 92 222 L 71 222 Z M 71 153 " clip-rule="nonzero"/></clipPath><clipPath id="b85082339a"><path d="M 91.125 220.433594 L 91.125 154.53125 C 91.125 153.90625 90.429688 153.523438 89.910156 153.871094 C 78.71875 160.882812 71.28125 173.308594 71.28125 187.5 C 71.28125 201.695312 78.71875 214.117188 89.910156 221.128906 C 90.429688 221.441406 91.125 221.058594 91.125 220.433594 Z M 91.125 220.433594 " clip-rule="nonzero"/></clipPath><linearGradient x1="42.900004" gradientTransform="matrix(0.3475, 0, 0, 0.347043, 56.37453, 147.833736)" y1="114.286003" x2="99.999999" gradientUnits="userSpaceOnUse" y2="114.286003" id="0cd6f6753b"><stop stop-opacity="1" stop-color="rgb(61.209106%, 74.105835%, 100%)" offset="0"/><stop stop-opacity="1" stop-color="rgb(61.309814%, 74.172974%, 100%)" offset="0.015625"/><stop stop-opacity="1" stop-color="rgb(61.51123%, 74.307251%, 100%)" offset="0.03125"/><stop stop-opacity="1" stop-color="rgb(61.712646%, 74.441528%, 100%)" offset="0.046875"/><stop stop-opacity="1" stop-color="rgb(61.914062%, 74.575806%, 100%)" offset="0.0625"/><stop stop-opacity="1" stop-color="rgb(62.115479%, 74.710083%, 100%)" offset="0.078125"/><stop stop-opacity="1" stop-color="rgb(62.316895%, 74.84436%, 100%)" offset="0.09375"/><stop stop-opacity="1" stop-color="rgb(62.518311%, 74.978638%, 100%)" offset="0.109375"/><stop stop-opacity="1" stop-color="rgb(62.719727%, 75.112915%, 100%)" offset="0.125"/><stop stop-opacity="1" stop-color="rgb(62.921143%, 75.247192%, 100%)" offset="0.140625"/><stop stop-opacity="1" stop-color="rgb(63.122559%, 75.38147%, 100%)" offset="0.15625"/><stop stop-opacity="1" stop-color="rgb(63.323975%, 75.515747%, 100%)" offset="0.171875"/><stop stop-opacity="1" stop-color="rgb(63.525391%, 75.650024%, 100%)" offset="0.1875"/><stop stop-opacity="1" stop-color="rgb(63.726807%, 75.784302%, 100%)" offset="0.203125"/><stop stop-opacity="1" stop-color="rgb(63.928223%, 75.918579%, 100%)" offset="0.21875"/><stop stop-opacity="1" stop-color="rgb(64.129639%, 76.052856%, 100%)" offset="0.234375"/><stop stop-opacity="1" stop-color="rgb(64.331055%, 76.187134%, 100%)" offset="0.25"/><stop stop-opacity="1" stop-color="rgb(64.532471%, 76.321411%, 100%)" offset="0.265625"/><stop stop-opacity="1" stop-color="rgb(64.733887%, 76.455688%, 100%)" offset="0.28125"/><stop stop-opacity="1" stop-color="rgb(64.935303%, 76.589966%, 100%)" offset="0.296875"/><stop stop-opacity="1" stop-color="rgb(65.136719%, 76.724243%, 100%)" offset="0.3125"/><stop stop-opacity="1" stop-color="rgb(65.338135%, 76.858521%, 100%)" offset="0.328125"/><stop stop-opacity="1" stop-color="rgb(65.539551%, 76.992798%, 100%)" offset="0.34375"/><stop stop-opacity="1" stop-color="rgb(65.740967%, 77.127075%, 100%)" offset="0.359375"/><stop stop-opacity="1" stop-color="rgb(65.942383%, 77.261353%, 100%)" offset="0.375"/><stop stop-opacity="1" stop-color="rgb(66.143799%, 77.39563%, 100%)" offset="0.390625"/><stop stop-opacity="1" stop-color="rgb(66.345215%, 77.529907%, 100%)" offset="0.40625"/><stop stop-opacity="1" stop-color="rgb(66.546631%, 77.664185%, 100%)" offset="0.421875"/><stop stop-opacity="1" stop-color="rgb(66.748047%, 77.798462%, 100%)" offset="0.4375"/><stop stop-opacity="1" stop-color="rgb(66.949463%, 77.932739%, 100%)" offset="0.453125"/><stop stop-opacity="1" stop-color="rgb(67.150879%, 78.067017%, 100%)" offset="0.46875"/><stop stop-opacity="1" stop-color="rgb(67.352295%, 78.201294%, 100%)" offset="0.484375"/><stop stop-opacity="1" stop-color="rgb(67.553711%, 78.335571%, 100%)" offset="0.5"/><stop stop-opacity="1" stop-color="rgb(67.755127%, 78.469849%, 100%)" offset="0.515625"/><stop stop-opacity="1" stop-color="rgb(67.956543%, 78.604126%, 100%)" offset="0.53125"/><stop stop-opacity="1" stop-color="rgb(68.157959%, 78.738403%, 100%)" offset="0.546875"/><stop stop-opacity="1" stop-color="rgb(68.359375%, 78.872681%, 100%)" offset="0.5625"/><stop stop-opacity="1" stop-color="rgb(68.560791%, 79.006958%, 100%)" offset="0.578125"/><stop stop-opacity="1" stop-color="rgb(68.762207%, 79.141235%, 100%)" offset="0.59375"/><stop stop-opacity="1" stop-color="rgb(68.963623%, 79.275513%, 100%)" offset="0.609375"/><stop stop-opacity="1" stop-color="rgb(69.165039%, 79.40979%, 100%)" offset="0.625"/><stop stop-opacity="1" stop-color="rgb(69.366455%, 79.544067%, 100%)" offset="0.640625"/><stop stop-opacity="1" stop-color="rgb(69.567871%, 79.678345%, 100%)" offset="0.65625"/><stop stop-opacity="1" stop-color="rgb(69.769287%, 79.812622%, 100%)" offset="0.671875"/><stop stop-opacity="1" stop-color="rgb(69.970703%, 79.946899%, 100%)" offset="0.6875"/><stop stop-opacity="1" stop-color="rgb(70.172119%, 80.081177%, 100%)" offset="0.703125"/><stop stop-opacity="1" stop-color="rgb(70.373535%, 80.215454%, 100%)" offset="0.71875"/><stop stop-opacity="1" stop-color="rgb(70.574951%, 80.349731%, 100%)" offset="0.734375"/><stop stop-opacity="1" stop-color="rgb(70.776367%, 80.484009%, 100%)" offset="0.75"/><stop stop-opacity="1" stop-color="rgb(70.977783%, 80.618286%, 100%)" offset="0.765625"/><stop stop-opacity="1" stop-color="rgb(71.179199%, 80.752563%, 100%)" offset="0.78125"/><stop stop-opacity="1" stop-color="rgb(71.380615%, 80.886841%, 100%)" offset="0.796875"/><stop stop-opacity="1" stop-color="rgb(71.582031%, 81.021118%, 100%)" offset="0.8125"/><stop stop-opacity="1" stop-color="rgb(71.783447%, 81.155396%, 100%)" offset="0.828125"/><stop stop-opacity="1" stop-color="rgb(71.984863%, 81.289673%, 100%)" offset="0.84375"/><stop stop-opacity="1" stop-color="rgb(72.186279%, 81.42395%, 100%)" offset="0.859375"/><stop stop-opacity="1" stop-color="rgb(72.387695%, 81.558228%, 100%)" offset="0.875"/><stop stop-opacity="1" stop-color="rgb(72.589111%, 81.692505%, 100%)" offset="0.890625"/><stop stop-opacity="1" stop-color="rgb(72.790527%, 81.826782%, 100%)" offset="0.90625"/><stop stop-opacity="1" stop-color="rgb(72.991943%, 81.96106%, 100%)" offset="0.921875"/><stop stop-opacity="1" stop-color="rgb(73.193359%, 82.095337%, 100%)" offset="0.9375"/><stop stop-opacity="1" stop-color="rgb(73.394775%, 82.229614%, 100%)" offset="0.953125"/><stop stop-opacity="1" stop-color="rgb(73.596191%, 82.363892%, 100%)" offset="0.96875"/><stop stop-opacity="1" stop-color="rgb(73.797607%, 82.498169%, 100%)" offset="0.984375"/><stop stop-opacity="1" stop-color="rgb(73.999023%, 82.632446%, 100%)" offset="1"/></linearGradient><clipPath id="60a0853f76"><path d="M 81 147.75 L 160.625 147.75 L 160.625 227.25 L 81 227.25 Z M 81 147.75 " clip-rule="nonzero"/></clipPath><clipPath id="227f726040"><path d="M 160.625 187.5 C 160.625 188.800781 160.5625 190.097656 160.433594 191.390625 C 160.304688 192.683594 160.113281 193.964844 159.859375 195.238281 C 159.609375 196.511719 159.292969 197.773438 158.914062 199.015625 C 158.535156 200.257812 158.097656 201.480469 157.601562 202.679688 C 157.101562 203.882812 156.546875 205.054688 155.933594 206.199219 C 155.320312 207.34375 154.652344 208.457031 153.929688 209.539062 C 153.207031 210.617188 152.433594 211.660156 151.609375 212.664062 C 150.785156 213.667969 149.910156 214.632812 148.992188 215.550781 C 148.070312 216.46875 147.109375 217.339844 146.101562 218.164062 C 145.097656 218.988281 144.054688 219.761719 142.972656 220.484375 C 141.890625 221.203125 140.777344 221.871094 139.628906 222.484375 C 138.480469 223.097656 137.308594 223.652344 136.105469 224.148438 C 134.902344 224.644531 133.679688 225.082031 132.433594 225.460938 C 131.191406 225.835938 129.929688 226.152344 128.652344 226.40625 C 127.378906 226.660156 126.09375 226.847656 124.796875 226.976562 C 123.503906 227.105469 122.207031 227.167969 120.90625 227.167969 C 119.605469 227.167969 118.308594 227.105469 117.011719 226.976562 C 115.71875 226.847656 114.433594 226.660156 113.15625 226.40625 C 111.878906 226.152344 110.621094 225.835938 109.375 225.460938 C 108.128906 225.082031 106.90625 224.644531 105.707031 224.148438 C 104.503906 223.652344 103.328125 223.097656 102.183594 222.484375 C 101.035156 221.871094 99.921875 221.203125 98.839844 220.484375 C 97.757812 219.761719 96.714844 218.988281 95.707031 218.164062 C 94.703125 217.339844 93.738281 216.46875 92.820312 215.550781 C 91.898438 214.632812 91.027344 213.667969 90.203125 212.664062 C 89.375 211.660156 88.601562 210.617188 87.878906 209.539062 C 87.15625 208.457031 86.488281 207.34375 85.875 206.199219 C 85.261719 205.054688 84.707031 203.882812 84.210938 202.679688 C 83.710938 201.480469 83.273438 200.257812 82.894531 199.015625 C 82.519531 197.773438 82.203125 196.511719 81.949219 195.238281 C 81.695312 193.964844 81.503906 192.683594 81.378906 191.390625 C 81.25 190.097656 81.1875 188.800781 81.1875 187.5 C 81.1875 186.203125 81.25 184.90625 81.378906 183.613281 C 81.503906 182.320312 81.695312 181.035156 81.949219 179.761719 C 82.203125 178.488281 82.519531 177.230469 82.894531 175.984375 C 83.273438 174.742188 83.710938 173.519531 84.210938 172.320312 C 84.707031 171.121094 85.261719 169.949219 85.875 168.800781 C 86.488281 167.65625 87.15625 166.542969 87.878906 165.464844 C 88.601562 164.382812 89.375 163.339844 90.203125 162.335938 C 91.027344 161.332031 91.898438 160.371094 92.820312 159.453125 C 93.738281 158.535156 94.703125 157.660156 95.707031 156.835938 C 96.714844 156.011719 97.757812 155.242188 98.839844 154.519531 C 99.921875 153.796875 101.035156 153.128906 102.183594 152.515625 C 103.328125 151.90625 104.503906 151.351562 105.707031 150.851562 C 106.90625 150.355469 108.128906 149.917969 109.375 149.542969 C 110.621094 149.164062 111.878906 148.847656 113.15625 148.597656 C 114.433594 148.34375 115.71875 148.152344 117.011719 148.023438 C 118.308594 147.898438 119.605469 147.832031 120.90625 147.832031 C 122.207031 147.832031 123.503906 147.898438 124.796875 148.023438 C 126.09375 148.152344 127.378906 148.34375 128.652344 148.597656 C 129.929688 148.847656 131.191406 149.164062 132.433594 149.542969 C 133.679688 149.917969 134.902344 150.355469 136.105469 150.851562 C 137.308594 151.351562 138.480469 151.90625 139.628906 152.515625 C 140.777344 153.128906 141.890625 153.796875 142.972656 154.519531 C 144.054688 155.242188 145.097656 156.011719 146.101562 156.835938 C 147.109375 157.660156 148.070312 158.535156 148.992188 159.453125 C 149.910156 160.371094 150.785156 161.332031 151.609375 162.335938 C 152.433594 163.339844 153.207031 164.382812 153.929688 165.464844 C 154.652344 166.542969 155.320312 167.65625 155.933594 168.800781 C 156.546875 169.949219 157.101562 171.121094 157.601562 172.320312 C 158.097656 173.519531 158.535156 174.742188 158.914062 175.984375 C 159.292969 177.230469 159.609375 178.488281 159.859375 179.761719 C 160.113281 181.035156 160.304688 182.320312 160.433594 183.613281 C 160.5625 184.90625 160.625 186.203125 160.625 187.5 Z M 160.625 187.5 " clip-rule="nonzero"/></clipPath><linearGradient x1="71.399995" gradientTransform="matrix(0.3475, 0, 0, 0.347043, 56.37453, 147.833736)" y1="114.286003" x2="299.999993" gradientUnits="userSpaceOnUse" y2="114.286003" id="ccab974d3a"><stop stop-opacity="1" stop-color="rgb(74.099731%, 82.699585%, 100%)" offset="0"/><stop stop-opacity="1" stop-color="rgb(74.198914%, 82.765198%, 100%)" offset="0.0078125"/><stop stop-opacity="1" stop-color="rgb(74.398804%, 82.899475%, 100%)" offset="0.015625"/><stop stop-opacity="1" stop-color="rgb(74.601746%, 83.035278%, 100%)" offset="0.0234375"/><stop stop-opacity="1" stop-color="rgb(74.803162%, 83.169556%, 100%)" offset="0.03125"/><stop stop-opacity="1" stop-color="rgb(75.006104%, 83.305359%, 100%)" offset="0.0390625"/><stop stop-opacity="1" stop-color="rgb(75.209045%, 83.439636%, 100%)" offset="0.046875"/><stop stop-opacity="1" stop-color="rgb(75.410461%, 83.575439%, 100%)" offset="0.0546875"/><stop stop-opacity="1" stop-color="rgb(75.613403%, 83.709717%, 100%)" offset="0.0625"/><stop stop-opacity="1" stop-color="rgb(75.816345%, 83.84552%, 100%)" offset="0.0703125"/><stop stop-opacity="1" stop-color="rgb(76.017761%, 83.981323%, 100%)" offset="0.078125"/><stop stop-opacity="1" stop-color="rgb(76.220703%, 84.115601%, 100%)" offset="0.0859375"/><stop stop-opacity="1" stop-color="rgb(76.422119%, 84.251404%, 100%)" offset="0.09375"/><stop stop-opacity="1" stop-color="rgb(76.625061%, 84.385681%, 100%)" offset="0.101563"/><stop stop-opacity="1" stop-color="rgb(76.828003%, 84.521484%, 100%)" offset="0.109375"/><stop stop-opacity="1" stop-color="rgb(77.029419%, 84.657288%, 100%)" offset="0.117188"/><stop stop-opacity="1" stop-color="rgb(77.232361%, 84.791565%, 100%)" offset="0.125"/><stop stop-opacity="1" stop-color="rgb(77.435303%, 84.927368%, 100%)" offset="0.132812"/><stop stop-opacity="1" stop-color="rgb(77.636719%, 85.061646%, 100%)" offset="0.140625"/><stop stop-opacity="1" stop-color="rgb(77.839661%, 85.197449%, 100%)" offset="0.148438"/><stop stop-opacity="1" stop-color="rgb(78.041077%, 85.331726%, 100%)" offset="0.15625"/><stop stop-opacity="1" stop-color="rgb(78.244019%, 85.467529%, 100%)" offset="0.164062"/><stop stop-opacity="1" stop-color="rgb(78.44696%, 85.603333%, 100%)" offset="0.171875"/><stop stop-opacity="1" stop-color="rgb(78.648376%, 85.73761%, 100%)" offset="0.179688"/><stop stop-opacity="1" stop-color="rgb(78.851318%, 85.873413%, 100%)" offset="0.1875"/><stop stop-opacity="1" stop-color="rgb(79.05426%, 86.00769%, 100%)" offset="0.195312"/><stop stop-opacity="1" stop-color="rgb(79.255676%, 86.143494%, 100%)" offset="0.203125"/><stop stop-opacity="1" stop-color="rgb(79.458618%, 86.279297%, 100%)" offset="0.210938"/><stop stop-opacity="1" stop-color="rgb(79.660034%, 86.413574%, 100%)" offset="0.21875"/><stop stop-opacity="1" stop-color="rgb(79.862976%, 86.549377%, 100%)" offset="0.226562"/><stop stop-opacity="1" stop-color="rgb(80.065918%, 86.683655%, 100%)" offset="0.234375"/><stop stop-opacity="1" stop-color="rgb(80.267334%, 86.819458%, 100%)" offset="0.242188"/><stop stop-opacity="1" stop-color="rgb(80.470276%, 86.955261%, 100%)" offset="0.25"/><stop stop-opacity="1" stop-color="rgb(80.673218%, 87.089539%, 100%)" offset="0.257812"/><stop stop-opacity="1" stop-color="rgb(80.874634%, 87.225342%, 100%)" offset="0.265625"/><stop stop-opacity="1" stop-color="rgb(81.077576%, 87.359619%, 100%)" offset="0.273438"/><stop stop-opacity="1" stop-color="rgb(81.278992%, 87.495422%, 100%)" offset="0.28125"/><stop stop-opacity="1" stop-color="rgb(81.481934%, 87.6297%, 100%)" offset="0.289062"/><stop stop-opacity="1" stop-color="rgb(81.684875%, 87.765503%, 100%)" offset="0.296875"/><stop stop-opacity="1" stop-color="rgb(81.886292%, 87.901306%, 100%)" offset="0.304688"/><stop stop-opacity="1" stop-color="rgb(82.089233%, 88.035583%, 100%)" offset="0.3125"/><stop stop-opacity="1" stop-color="rgb(82.292175%, 88.171387%, 100%)" offset="0.320312"/><stop stop-opacity="1" stop-color="rgb(82.493591%, 88.305664%, 100%)" offset="0.328125"/><stop stop-opacity="1" stop-color="rgb(82.696533%, 88.441467%, 100%)" offset="0.335938"/><stop stop-opacity="1" stop-color="rgb(82.897949%, 88.577271%, 100%)" offset="0.34375"/><stop stop-opacity="1" stop-color="rgb(83.100891%, 88.711548%, 100%)" offset="0.351562"/><stop stop-opacity="1" stop-color="rgb(83.303833%, 88.847351%, 100%)" offset="0.359375"/><stop stop-opacity="1" stop-color="rgb(83.505249%, 88.981628%, 100%)" offset="0.367188"/><stop stop-opacity="1" stop-color="rgb(83.708191%, 89.117432%, 100%)" offset="0.375"/><stop stop-opacity="1" stop-color="rgb(83.911133%, 89.253235%, 100%)" offset="0.382812"/><stop stop-opacity="1" stop-color="rgb(84.112549%, 89.387512%, 100%)" offset="0.390625"/><stop stop-opacity="1" stop-color="rgb(84.315491%, 89.523315%, 100%)" offset="0.398438"/><stop stop-opacity="1" stop-color="rgb(84.516907%, 89.657593%, 100%)" offset="0.40625"/><stop stop-opacity="1" stop-color="rgb(84.719849%, 89.793396%, 100%)" offset="0.414062"/><stop stop-opacity="1" stop-color="rgb(84.922791%, 89.927673%, 100%)" offset="0.421875"/><stop stop-opacity="1" stop-color="rgb(85.124207%, 90.063477%, 100%)" offset="0.429688"/><stop stop-opacity="1" stop-color="rgb(85.327148%, 90.19928%, 100%)" offset="0.4375"/><stop stop-opacity="1" stop-color="rgb(85.53009%, 90.333557%, 100%)" offset="0.445312"/><stop stop-opacity="1" stop-color="rgb(85.731506%, 90.46936%, 100%)" offset="0.453125"/><stop stop-opacity="1" stop-color="rgb(85.934448%, 90.603638%, 100%)" offset="0.460938"/><stop stop-opacity="1" stop-color="rgb(86.135864%, 90.739441%, 100%)" offset="0.46875"/><stop stop-opacity="1" stop-color="rgb(86.338806%, 90.875244%, 100%)" offset="0.476562"/><stop stop-opacity="1" stop-color="rgb(86.541748%, 91.009521%, 100%)" offset="0.484375"/><stop stop-opacity="1" stop-color="rgb(86.743164%, 91.145325%, 100%)" offset="0.492188"/><stop stop-opacity="1" stop-color="rgb(86.946106%, 91.279602%, 100%)" offset="0.5"/><stop stop-opacity="1" stop-color="rgb(87.149048%, 91.415405%, 100%)" offset="0.507812"/><stop stop-opacity="1" stop-color="rgb(87.350464%, 91.551208%, 100%)" offset="0.515625"/><stop stop-opacity="1" stop-color="rgb(87.553406%, 91.685486%, 100%)" offset="0.523438"/><stop stop-opacity="1" stop-color="rgb(87.754822%, 91.821289%, 100%)" offset="0.53125"/><stop stop-opacity="1" stop-color="rgb(87.957764%, 91.955566%, 100%)" offset="0.539063"/><stop stop-opacity="1" stop-color="rgb(88.160706%, 92.09137%, 100%)" offset="0.546875"/><stop stop-opacity="1" stop-color="rgb(88.362122%, 92.225647%, 100%)" offset="0.554688"/><stop stop-opacity="1" stop-color="rgb(88.565063%, 92.36145%, 100%)" offset="0.5625"/><stop stop-opacity="1" stop-color="rgb(88.768005%, 92.497253%, 100%)" offset="0.570312"/><stop stop-opacity="1" stop-color="rgb(88.969421%, 92.631531%, 100%)" offset="0.578125"/><stop stop-opacity="1" stop-color="rgb(89.172363%, 92.767334%, 100%)" offset="0.585937"/><stop stop-opacity="1" stop-color="rgb(89.373779%, 92.901611%, 100%)" offset="0.59375"/><stop stop-opacity="1" stop-color="rgb(89.576721%, 93.037415%, 100%)" offset="0.601562"/><stop stop-opacity="1" stop-color="rgb(89.779663%, 93.173218%, 100%)" offset="0.609375"/><stop stop-opacity="1" stop-color="rgb(89.981079%, 93.307495%, 100%)" offset="0.617188"/><stop stop-opacity="1" stop-color="rgb(90.184021%, 93.443298%, 100%)" offset="0.625"/><stop stop-opacity="1" stop-color="rgb(90.386963%, 93.577576%, 100%)" offset="0.632812"/><stop stop-opacity="1" stop-color="rgb(90.588379%, 93.713379%, 100%)" offset="0.640625"/><stop stop-opacity="1" stop-color="rgb(90.791321%, 93.847656%, 100%)" offset="0.648438"/><stop stop-opacity="1" stop-color="rgb(90.992737%, 93.983459%, 100%)" offset="0.65625"/><stop stop-opacity="1" stop-color="rgb(91.195679%, 94.119263%, 100%)" offset="0.664063"/><stop stop-opacity="1" stop-color="rgb(91.398621%, 94.25354%, 100%)" offset="0.671875"/><stop stop-opacity="1" stop-color="rgb(91.600037%, 94.389343%, 100%)" offset="0.679688"/><stop stop-opacity="1" stop-color="rgb(91.802979%, 94.523621%, 100%)" offset="0.6875"/><stop stop-opacity="1" stop-color="rgb(92.00592%, 94.659424%, 100%)" offset="0.695312"/><stop stop-opacity="1" stop-color="rgb(92.207336%, 94.795227%, 100%)" offset="0.703125"/><stop stop-opacity="1" stop-color="rgb(92.410278%, 94.929504%, 100%)" offset="0.710937"/><stop stop-opacity="1" stop-color="rgb(92.611694%, 95.065308%, 100%)" offset="0.71875"/><stop stop-opacity="1" stop-color="rgb(92.814636%, 95.199585%, 100%)" offset="0.726562"/><stop stop-opacity="1" stop-color="rgb(93.017578%, 95.335388%, 100%)" offset="0.734375"/><stop stop-opacity="1" stop-color="rgb(93.218994%, 95.471191%, 100%)" offset="0.742188"/><stop stop-opacity="1" stop-color="rgb(93.421936%, 95.605469%, 100%)" offset="0.75"/><stop stop-opacity="1" stop-color="rgb(93.624878%, 95.741272%, 100%)" offset="0.757812"/><stop stop-opacity="1" stop-color="rgb(93.826294%, 95.875549%, 100%)" offset="0.765625"/><stop stop-opacity="1" stop-color="rgb(94.029236%, 96.011353%, 100%)" offset="0.773438"/><stop stop-opacity="1" stop-color="rgb(94.230652%, 96.14563%, 100%)" offset="0.78125"/><stop stop-opacity="1" stop-color="rgb(94.433594%, 96.281433%, 100%)" offset="0.789063"/><stop stop-opacity="1" stop-color="rgb(94.636536%, 96.417236%, 100%)" offset="0.796875"/><stop stop-opacity="1" stop-color="rgb(94.837952%, 96.551514%, 100%)" offset="0.804688"/><stop stop-opacity="1" stop-color="rgb(95.040894%, 96.687317%, 100%)" offset="0.8125"/><stop stop-opacity="1" stop-color="rgb(95.243835%, 96.821594%, 100%)" offset="0.820312"/><stop stop-opacity="1" stop-color="rgb(95.445251%, 96.957397%, 100%)" offset="0.828125"/><stop stop-opacity="1" stop-color="rgb(95.648193%, 97.093201%, 100%)" offset="0.835937"/><stop stop-opacity="1" stop-color="rgb(95.849609%, 97.227478%, 100%)" offset="0.84375"/><stop stop-opacity="1" stop-color="rgb(96.052551%, 97.363281%, 100%)" offset="0.851562"/><stop stop-opacity="1" stop-color="rgb(96.255493%, 97.497559%, 100%)" offset="0.859375"/><stop stop-opacity="1" stop-color="rgb(96.456909%, 97.633362%, 100%)" offset="0.867188"/><stop stop-opacity="1" stop-color="rgb(96.659851%, 97.769165%, 100%)" offset="0.875"/><stop stop-opacity="1" stop-color="rgb(96.862793%, 97.903442%, 100%)" offset="0.882812"/><stop stop-opacity="1" stop-color="rgb(97.064209%, 98.039246%, 100%)" offset="0.890625"/><stop stop-opacity="1" stop-color="rgb(97.267151%, 98.173523%, 100%)" offset="0.898438"/><stop stop-opacity="1" stop-color="rgb(97.468567%, 98.309326%, 100%)" offset="0.90625"/><stop stop-opacity="1" stop-color="rgb(97.671509%, 98.443604%, 100%)" offset="0.914063"/><stop stop-opacity="1" stop-color="rgb(97.874451%, 98.579407%, 100%)" offset="0.921875"/><stop stop-opacity="1" stop-color="rgb(98.075867%, 98.71521%, 100%)" offset="0.929688"/><stop stop-opacity="1" stop-color="rgb(98.278809%, 98.849487%, 100%)" offset="0.9375"/><stop stop-opacity="1" stop-color="rgb(98.48175%, 98.985291%, 100%)" offset="0.945312"/><stop stop-opacity="1" stop-color="rgb(98.683167%, 99.119568%, 100%)" offset="0.953125"/><stop stop-opacity="1" stop-color="rgb(98.886108%, 99.255371%, 100%)" offset="0.960937"/><stop stop-opacity="1" stop-color="rgb(99.087524%, 99.391174%, 100%)" offset="0.96875"/><stop stop-opacity="1" stop-color="rgb(99.290466%, 99.525452%, 100%)" offset="0.976562"/><stop stop-opacity="1" stop-color="rgb(99.493408%, 99.661255%, 100%)" offset="0.984375"/><stop stop-opacity="1" stop-color="rgb(99.694824%, 99.795532%, 100%)" offset="0.992188"/><stop stop-opacity="1" stop-color="rgb(99.897766%, 99.931335%, 100%)" offset="1"/></linearGradient></defs><g clip-path="url(#4d16c2919b)"><g clip-path="url(#686104d432)"><path fill="url(#27fc1c9de4)" d="M 56.375 170.53125 L 56.375 204.472656 L 61.34375 204.472656 L 61.34375 170.53125 Z M 56.375 170.53125 " fill-rule="nonzero"/></g></g><g clip-path="url(#0b25f2f770)"><g clip-path="url(#996bdb4518)"><path fill="url(#81f2bbe704)" d="M 63.8125 162.375 L 63.8125 212.625 L 73.75 212.625 L 73.75 162.375 Z M 63.8125 162.375 " fill-rule="nonzero"/></g></g><g clip-path="url(#ed8cab597b)"><g clip-path="url(#b85082339a)"><path fill="url(#0cd6f6753b)" d="M 71.28125 153.523438 L 71.28125 221.441406 L 91.125 221.441406 L 91.125 153.523438 Z M 71.28125 153.523438 " fill-rule="nonzero"/></g></g><g clip-path="url(#60a0853f76)"><g clip-path="url(#227f726040)"><path fill="url(#ccab974d3a)" d="M 81.1875 147.832031 L 81.1875 227.167969 L 160.625 227.167969 L 160.625 147.832031 Z M 81.1875 147.832031 " fill-rule="nonzero"/></g></g><g fill="#ffffff" fill-opacity="1"><g transform="translate(173.216799, 193.447429)"><g><path d="M 8.171875 -4.707031 L 8.171875 -11.011719 L 21.402344 -11.011719 L 21.402344 -15.410156 L 8.171875 -15.410156 L 8.171875 -21.207031 L 22.570312 -21.207031 L 22.570312 -25.878906 L 2.257812 -25.878906 L 2.257812 0 L 22.6875 0 L 22.6875 -4.707031 Z M 8.171875 -4.707031 "/></g></g></g><g fill="#ffffff" fill-opacity="1"><g transform="translate(197.848558, 193.447429)"><g><path d="M 1.441406 -9.730469 C 1.441406 -4.28125 4.628906 0.621094 12.21875 0.621094 C 19.066406 0.621094 22.296875 -3.464844 22.414062 -8.015625 L 16.8125 -8.015625 C 16.578125 -5.679688 15.214844 -3.890625 12.140625 -3.890625 C 9.027344 -3.890625 7.238281 -5.332031 7.238281 -9.730469 C 7.238281 -14.085938 9.105469 -15.566406 12.21875 -15.566406 C 15.175781 -15.566406 16.5 -13.96875 16.695312 -11.558594 L 22.296875 -11.558594 C 22.140625 -16.34375 18.835938 -20.078125 12.101562 -20.078125 C 4.554688 -20.078125 1.441406 -15.175781 1.441406 -9.730469 Z M 1.441406 -9.730469 "/></g></g></g><g fill="#ffffff" fill-opacity="1"><g transform="translate(221.5464, 193.447429)"><g><path d="M 15.019531 -20.078125 C 11.480469 -20.078125 9.261719 -18.289062 8.015625 -15.644531 L 8.015625 -27.238281 L 2.257812 -27.238281 L 2.257812 0 L 8.015625 0 L 8.015625 -8.832031 C 8.015625 -13.464844 9.730469 -15.410156 12.804688 -15.410156 C 15.175781 -15.410156 16.5 -14.164062 16.5 -11.050781 L 16.5 0 L 22.257812 0 L 22.257812 -11.945312 C 22.257812 -17.042969 20.117188 -20.078125 15.019531 -20.078125 Z M 15.019531 -20.078125 "/></g></g></g><g fill="#ffffff" fill-opacity="1"><g transform="translate(245.789023, 193.447429)"><g><path d="M 12.21875 0.621094 C 20.003906 0.621094 23 -4.359375 23 -9.765625 C 23 -15.097656 20.003906 -20.078125 12.21875 -20.078125 C 4.476562 -20.078125 1.441406 -15.136719 1.441406 -9.765625 C 1.441406 -4.320312 4.476562 0.621094 12.21875 0.621094 Z M 7.238281 -9.730469 C 7.238281 -14.046875 8.71875 -15.566406 12.21875 -15.566406 C 15.761719 -15.566406 17.238281 -14.046875 17.238281 -9.730469 C 17.238281 -5.410156 15.761719 -3.890625 12.21875 -3.890625 C 8.71875 -3.890625 7.238281 -5.410156 7.238281 -9.730469 Z M 7.238281 -9.730469 "/></g></g></g><g fill="#ffffff" fill-opacity="1"><g transform="translate(173.216799, 210.671567)"><g><path d="M 3.515625 0 L 3.515625 -3.828125 L 0.1875 -9.703125 L 1.515625 -9.703125 L 4.09375 -5.03125 L 4.140625 -5.03125 L 6.71875 -9.703125 L 8.0625 -9.703125 L 4.6875 -3.875 L 4.6875 0 Z M 3.515625 0 "/></g></g></g><g fill="#ffffff" fill-opacity="1"><g transform="translate(181.455831, 210.671567)"><g><path d="M 3.890625 0.171875 C 3.410156 0.171875 2.96875 0.0820312 2.5625 -0.09375 C 2.164062 -0.269531 1.828125 -0.519531 1.546875 -0.84375 C 1.265625 -1.175781 1.046875 -1.570312 0.890625 -2.03125 C 0.734375 -2.488281 0.65625 -3.003906 0.65625 -3.578125 C 0.65625 -4.148438 0.734375 -4.664062 0.890625 -5.125 C 1.046875 -5.582031 1.265625 -5.976562 1.546875 -6.3125 C 1.828125 -6.644531 2.164062 -6.894531 2.5625 -7.0625 C 2.96875 -7.238281 3.410156 -7.328125 3.890625 -7.328125 C 4.367188 -7.328125 4.804688 -7.238281 5.203125 -7.0625 C 5.597656 -6.894531 5.9375 -6.644531 6.21875 -6.3125 C 6.507812 -5.976562 6.734375 -5.582031 6.890625 -5.125 C 7.046875 -4.664062 7.125 -4.148438 7.125 -3.578125 C 7.125 -3.003906 7.046875 -2.488281 6.890625 -2.03125 C 6.734375 -1.570312 6.507812 -1.175781 6.21875 -0.84375 C 5.9375 -0.519531 5.597656 -0.269531 5.203125 -0.09375 C 4.804688 0.0820312 4.367188 0.171875 3.890625 0.171875 Z M 3.890625 -0.8125 C 4.492188 -0.8125 4.984375 -1 5.359375 -1.375 C 5.742188 -1.75 5.9375 -2.3125 5.9375 -3.0625 L 5.9375 -4.09375 C 5.9375 -4.851562 5.742188 -5.414062 5.359375 -5.78125 C 4.984375 -6.15625 4.492188 -6.34375 3.890625 -6.34375 C 3.285156 -6.34375 2.789062 -6.15625 2.40625 -5.78125 C 2.03125 -5.414062 1.84375 -4.851562 1.84375 -4.09375 L 1.84375 -3.0625 C 1.84375 -2.3125 2.03125 -1.75 2.40625 -1.375 C 2.789062 -1 3.285156 -0.8125 3.890625 -0.8125 Z M 3.890625 -0.8125 "/></g></g></g><g fill="#ffffff" fill-opacity="1"><g transform="translate(189.236375, 210.671567)"><g><path d="M 5.59375 -1.171875 L 5.546875 -1.171875 C 5.472656 -1.003906 5.378906 -0.835938 5.265625 -0.671875 C 5.160156 -0.515625 5.03125 -0.375 4.875 -0.25 C 4.71875 -0.125 4.523438 -0.0234375 4.296875 0.046875 C 4.078125 0.128906 3.820312 0.171875 3.53125 0.171875 C 2.789062 0.171875 2.203125 -0.0664062 1.765625 -0.546875 C 1.328125 -1.023438 1.109375 -1.695312 1.109375 -2.5625 L 1.109375 -7.171875 L 2.21875 -7.171875 L 2.21875 -2.765625 C 2.21875 -1.472656 2.765625 -0.828125 3.859375 -0.828125 C 4.078125 -0.828125 4.289062 -0.851562 4.5 -0.90625 C 4.707031 -0.96875 4.894531 -1.050781 5.0625 -1.15625 C 5.226562 -1.269531 5.359375 -1.410156 5.453125 -1.578125 C 5.546875 -1.753906 5.59375 -1.960938 5.59375 -2.203125 L 5.59375 -7.171875 L 6.703125 -7.171875 L 6.703125 0 L 5.59375 0 Z M 5.59375 -1.171875 "/></g></g></g><g fill="#ffffff" fill-opacity="1"><g transform="translate(197.128058, 210.671567)"><g><path d="M 1.1875 0 L 1.1875 -7.171875 L 2.296875 -7.171875 L 2.296875 -5.84375 L 2.359375 -5.84375 C 2.492188 -6.1875 2.726562 -6.492188 3.0625 -6.765625 C 3.394531 -7.035156 3.851562 -7.171875 4.4375 -7.171875 L 4.859375 -7.171875 L 4.859375 -6.0625 L 4.203125 -6.0625 C 3.609375 -6.0625 3.140625 -5.945312 2.796875 -5.71875 C 2.460938 -5.488281 2.296875 -5.203125 2.296875 -4.859375 L 2.296875 0 Z M 1.1875 0 "/></g></g></g><g fill="#ffffff" fill-opacity="1"><g transform="translate(202.227088, 210.671567)"><g/></g></g><g fill="#ffffff" fill-opacity="1"><g transform="translate(205.506034, 210.671567)"><g><path d="M 3.5 0 L 0.28125 -9.703125 L 1.53125 -9.703125 L 3.125 -4.8125 L 4.1875 -1.171875 L 4.265625 -1.171875 L 5.359375 -4.8125 L 6.96875 -9.703125 L 8.1875 -9.703125 L 4.921875 0 Z M 3.5 0 "/></g></g></g><g fill="#ffffff" fill-opacity="1"><g transform="translate(213.96736, 210.671567)"><g><path d="M 3.890625 0.171875 C 3.410156 0.171875 2.96875 0.0820312 2.5625 -0.09375 C 2.164062 -0.269531 1.828125 -0.519531 1.546875 -0.84375 C 1.265625 -1.175781 1.046875 -1.570312 0.890625 -2.03125 C 0.734375 -2.488281 0.65625 -3.003906 0.65625 -3.578125 C 0.65625 -4.148438 0.734375 -4.664062 0.890625 -5.125 C 1.046875 -5.582031 1.265625 -5.976562 1.546875 -6.3125 C 1.828125 -6.644531 2.164062 -6.894531 2.5625 -7.0625 C 2.96875 -7.238281 3.410156 -7.328125 3.890625 -7.328125 C 4.367188 -7.328125 4.804688 -7.238281 5.203125 -7.0625 C 5.597656 -6.894531 5.9375 -6.644531 6.21875 -6.3125 C 6.507812 -5.976562 6.734375 -5.582031 6.890625 -5.125 C 7.046875 -4.664062 7.125 -4.148438 7.125 -3.578125 C 7.125 -3.003906 7.046875 -2.488281 6.890625 -2.03125 C 6.734375 -1.570312 6.507812 -1.175781 6.21875 -0.84375 C 5.9375 -0.519531 5.597656 -0.269531 5.203125 -0.09375 C 4.804688 0.0820312 4.367188 0.171875 3.890625 0.171875 Z M 3.890625 -0.8125 C 4.492188 -0.8125 4.984375 -1 5.359375 -1.375 C 5.742188 -1.75 5.9375 -2.3125 5.9375 -3.0625 L 5.9375 -4.09375 C 5.9375 -4.851562 5.742188 -5.414062 5.359375 -5.78125 C 4.984375 -6.15625 4.492188 -6.34375 3.890625 -6.34375 C 3.285156 -6.34375 2.789062 -6.15625 2.40625 -5.78125 C 2.03125 -5.414062 1.84375 -4.851562 1.84375 -4.09375 L 1.84375 -3.0625 C 1.84375 -2.3125 2.03125 -1.75 2.40625 -1.375 C 2.789062 -1 3.285156 -0.8125 3.890625 -0.8125 Z M 3.890625 -0.8125 "/></g></g></g><g fill="#ffffff" fill-opacity="1"><g transform="translate(221.747904, 210.671567)"><g><path d="M 1.734375 -8.84375 C 1.492188 -8.84375 1.320312 -8.898438 1.21875 -9.015625 C 1.113281 -9.140625 1.0625 -9.289062 1.0625 -9.46875 L 1.0625 -9.65625 C 1.0625 -9.84375 1.113281 -9.992188 1.21875 -10.109375 C 1.320312 -10.222656 1.492188 -10.28125 1.734375 -10.28125 C 1.972656 -10.28125 2.144531 -10.222656 2.25 -10.109375 C 2.363281 -9.992188 2.421875 -9.84375 2.421875 -9.65625 L 2.421875 -9.46875 C 2.421875 -9.289062 2.363281 -9.140625 2.25 -9.015625 C 2.144531 -8.898438 1.972656 -8.84375 1.734375 -8.84375 Z M 1.1875 -7.171875 L 2.296875 -7.171875 L 2.296875 0 L 1.1875 0 Z M 1.1875 -7.171875 "/></g></g></g><g fill="#ffffff" fill-opacity="1"><g transform="translate(225.221354, 210.671567)"><g><path d="M 3.84375 0.171875 C 3.34375 0.171875 2.894531 0.0820312 2.5 -0.09375 C 2.101562 -0.269531 1.765625 -0.519531 1.484375 -0.84375 C 1.210938 -1.164062 1.003906 -1.554688 0.859375 -2.015625 C 0.722656 -2.484375 0.65625 -3.003906 0.65625 -3.578125 C 0.65625 -4.148438 0.722656 -4.664062 0.859375 -5.125 C 1.003906 -5.59375 1.210938 -5.988281 1.484375 -6.3125 C 1.765625 -6.644531 2.101562 -6.894531 2.5 -7.0625 C 2.894531 -7.238281 3.34375 -7.328125 3.84375 -7.328125 C 4.5625 -7.328125 5.132812 -7.171875 5.5625 -6.859375 C 5.988281 -6.554688 6.3125 -6.15625 6.53125 -5.65625 L 5.59375 -5.1875 C 5.46875 -5.550781 5.253906 -5.832031 4.953125 -6.03125 C 4.660156 -6.238281 4.289062 -6.34375 3.84375 -6.34375 C 3.507812 -6.34375 3.21875 -6.289062 2.96875 -6.1875 C 2.71875 -6.082031 2.507812 -5.929688 2.34375 -5.734375 C 2.175781 -5.546875 2.050781 -5.320312 1.96875 -5.0625 C 1.882812 -4.800781 1.84375 -4.507812 1.84375 -4.1875 L 1.84375 -2.96875 C 1.84375 -2.34375 2.007812 -1.828125 2.34375 -1.421875 C 2.6875 -1.015625 3.1875 -0.8125 3.84375 -0.8125 C 4.738281 -0.8125 5.390625 -1.226562 5.796875 -2.0625 L 6.59375 -1.53125 C 6.363281 -1.007812 6.019531 -0.59375 5.5625 -0.28125 C 5.101562 0.0195312 4.53125 0.171875 3.84375 0.171875 Z M 3.84375 0.171875 "/></g></g></g><g fill="#ffffff" fill-opacity="1"><g transform="translate(232.209947, 210.671567)"><g><path d="M 3.875 0.171875 C 3.382812 0.171875 2.941406 0.0820312 2.546875 -0.09375 C 2.148438 -0.269531 1.8125 -0.519531 1.53125 -0.84375 C 1.25 -1.175781 1.03125 -1.570312 0.875 -2.03125 C 0.726562 -2.488281 0.65625 -3.003906 0.65625 -3.578125 C 0.65625 -4.148438 0.726562 -4.664062 0.875 -5.125 C 1.03125 -5.582031 1.25 -5.976562 1.53125 -6.3125 C 1.8125 -6.644531 2.148438 -6.894531 2.546875 -7.0625 C 2.941406 -7.238281 3.382812 -7.328125 3.875 -7.328125 C 4.351562 -7.328125 4.78125 -7.238281 5.15625 -7.0625 C 5.539062 -6.894531 5.867188 -6.65625 6.140625 -6.34375 C 6.410156 -6.03125 6.613281 -5.660156 6.75 -5.234375 C 6.894531 -4.804688 6.96875 -4.335938 6.96875 -3.828125 L 6.96875 -3.3125 L 1.8125 -3.3125 L 1.8125 -2.96875 C 1.8125 -2.664062 1.859375 -2.378906 1.953125 -2.109375 C 2.054688 -1.847656 2.195312 -1.617188 2.375 -1.421875 C 2.5625 -1.234375 2.785156 -1.082031 3.046875 -0.96875 C 3.304688 -0.863281 3.601562 -0.8125 3.9375 -0.8125 C 4.394531 -0.8125 4.789062 -0.914062 5.125 -1.125 C 5.46875 -1.332031 5.734375 -1.640625 5.921875 -2.046875 L 6.703125 -1.46875 C 6.472656 -0.976562 6.113281 -0.582031 5.625 -0.28125 C 5.132812 0.0195312 4.550781 0.171875 3.875 0.171875 Z M 3.875 -6.40625 C 3.570312 -6.40625 3.296875 -6.347656 3.046875 -6.234375 C 2.796875 -6.128906 2.578125 -5.976562 2.390625 -5.78125 C 2.210938 -5.59375 2.070312 -5.363281 1.96875 -5.09375 C 1.863281 -4.832031 1.8125 -4.546875 1.8125 -4.234375 L 1.8125 -4.140625 L 5.78125 -4.140625 L 5.78125 -4.296875 C 5.78125 -4.929688 5.601562 -5.441406 5.25 -5.828125 C 4.90625 -6.210938 4.445312 -6.40625 3.875 -6.40625 Z M 3.875 -6.40625 "/></g></g></g><g fill="#ffffff" fill-opacity="1"><g transform="translate(239.837645, 210.671567)"><g><path d="M 1.890625 -1.625 C 2.179688 -1.625 2.394531 -1.546875 2.53125 -1.390625 C 2.664062 -1.242188 2.734375 -1.050781 2.734375 -0.8125 L 2.734375 -0.609375 C 2.734375 -0.234375 2.617188 0.179688 2.390625 0.640625 C 2.171875 1.097656 1.863281 1.5 1.46875 1.84375 L 0.546875 1.84375 C 0.816406 1.550781 1.035156 1.269531 1.203125 1 C 1.378906 0.738281 1.503906 0.445312 1.578125 0.125 C 1.398438 0.0820312 1.265625 0 1.171875 -0.125 C 1.085938 -0.257812 1.046875 -0.421875 1.046875 -0.609375 L 1.046875 -0.8125 C 1.046875 -1.050781 1.109375 -1.242188 1.234375 -1.390625 C 1.367188 -1.546875 1.585938 -1.625 1.890625 -1.625 Z M 1.890625 -1.625 "/></g></g></g><g fill="#ffffff" fill-opacity="1"><g transform="translate(243.616771, 210.671567)"><g/></g></g><g fill="#ffffff" fill-opacity="1"><g transform="translate(246.895717, 210.671567)"><g><path d="M 3.515625 0 L 3.515625 -3.828125 L 0.1875 -9.703125 L 1.515625 -9.703125 L 4.09375 -5.03125 L 4.140625 -5.03125 L 6.71875 -9.703125 L 8.0625 -9.703125 L 4.6875 -3.875 L 4.6875 0 Z M 3.515625 0 "/></g></g></g><g fill="#ffffff" fill-opacity="1"><g transform="translate(255.13475, 210.671567)"><g><path d="M 3.890625 0.171875 C 3.410156 0.171875 2.96875 0.0820312 2.5625 -0.09375 C 2.164062 -0.269531 1.828125 -0.519531 1.546875 -0.84375 C 1.265625 -1.175781 1.046875 -1.570312 0.890625 -2.03125 C 0.734375 -2.488281 0.65625 -3.003906 0.65625 -3.578125 C 0.65625 -4.148438 0.734375 -4.664062 0.890625 -5.125 C 1.046875 -5.582031 1.265625 -5.976562 1.546875 -6.3125 C 1.828125 -6.644531 2.164062 -6.894531 2.5625 -7.0625 C 2.96875 -7.238281 3.410156 -7.328125 3.890625 -7.328125 C 4.367188 -7.328125 4.804688 -7.238281 5.203125 -7.0625 C 5.597656 -6.894531 5.9375 -6.644531 6.21875 -6.3125 C 6.507812 -5.976562 6.734375 -5.582031 6.890625 -5.125 C 7.046875 -4.664062 7.125 -4.148438 7.125 -3.578125 C 7.125 -3.003906 7.046875 -2.488281 6.890625 -2.03125 C 6.734375 -1.570312 6.507812 -1.175781 6.21875 -0.84375 C 5.9375 -0.519531 5.597656 -0.269531 5.203125 -0.09375 C 4.804688 0.0820312 4.367188 0.171875 3.890625 0.171875 Z M 3.890625 -0.8125 C 4.492188 -0.8125 4.984375 -1 5.359375 -1.375 C 5.742188 -1.75 5.9375 -2.3125 5.9375 -3.0625 L 5.9375 -4.09375 C 5.9375 -4.851562 5.742188 -5.414062 5.359375 -5.78125 C 4.984375 -6.15625 4.492188 -6.34375 3.890625 -6.34375 C 3.285156 -6.34375 2.789062 -6.15625 2.40625 -5.78125 C 2.03125 -5.414062 1.84375 -4.851562 1.84375 -4.09375 L 1.84375 -3.0625 C 1.84375 -2.3125 2.03125 -1.75 2.40625 -1.375 C 2.789062 -1 3.285156 -0.8125 3.890625 -0.8125 Z M 3.890625 -0.8125 "/></g></g></g><g fill="#ffffff" fill-opacity="1"><g transform="translate(262.915294, 210.671567)"><g><path d="M 5.59375 -1.171875 L 5.546875 -1.171875 C 5.472656 -1.003906 5.378906 -0.835938 5.265625 -0.671875 C 5.160156 -0.515625 5.03125 -0.375 4.875 -0.25 C 4.71875 -0.125 4.523438 -0.0234375 4.296875 0.046875 C 4.078125 0.128906 3.820312 0.171875 3.53125 0.171875 C 2.789062 0.171875 2.203125 -0.0664062 1.765625 -0.546875 C 1.328125 -1.023438 1.109375 -1.695312 1.109375 -2.5625 L 1.109375 -7.171875 L 2.21875 -7.171875 L 2.21875 -2.765625 C 2.21875 -1.472656 2.765625 -0.828125 3.859375 -0.828125 C 4.078125 -0.828125 4.289062 -0.851562 4.5 -0.90625 C 4.707031 -0.96875 4.894531 -1.050781 5.0625 -1.15625 C 5.226562 -1.269531 5.359375 -1.410156 5.453125 -1.578125 C 5.546875 -1.753906 5.59375 -1.960938 5.59375 -2.203125 L 5.59375 -7.171875 L 6.703125 -7.171875 L 6.703125 0 L 5.59375 0 Z M 5.59375 -1.171875 "/></g></g></g><g fill="#ffffff" fill-opacity="1"><g transform="translate(270.806977, 210.671567)"><g><path d="M 1.1875 0 L 1.1875 -7.171875 L 2.296875 -7.171875 L 2.296875 -5.84375 L 2.359375 -5.84375 C 2.492188 -6.1875 2.726562 -6.492188 3.0625 -6.765625 C 3.394531 -7.035156 3.851562 -7.171875 4.4375 -7.171875 L 4.859375 -7.171875 L 4.859375 -6.0625 L 4.203125 -6.0625 C 3.609375 -6.0625 3.140625 -5.945312 2.796875 -5.71875 C 2.460938 -5.488281 2.296875 -5.203125 2.296875 -4.859375 L 2.296875 0 Z M 1.1875 0 "/></g></g></g><g fill="#ffffff" fill-opacity="1"><g transform="translate(275.906006, 210.671567)"><g/></g></g><g fill="#ffffff" fill-opacity="1"><g transform="translate(279.184952, 210.671567)"><g><path d="M 4.015625 0.171875 C 3.222656 0.171875 2.550781 0.0195312 2 -0.28125 C 1.445312 -0.582031 0.972656 -1 0.578125 -1.53125 L 1.4375 -2.25 C 1.78125 -1.789062 2.160156 -1.441406 2.578125 -1.203125 C 2.992188 -0.972656 3.488281 -0.859375 4.0625 -0.859375 C 4.75 -0.859375 5.273438 -1.023438 5.640625 -1.359375 C 6.003906 -1.691406 6.1875 -2.132812 6.1875 -2.6875 C 6.1875 -3.15625 6.046875 -3.515625 5.765625 -3.765625 C 5.492188 -4.015625 5.039062 -4.210938 4.40625 -4.359375 L 3.609375 -4.546875 C 2.722656 -4.742188 2.046875 -5.046875 1.578125 -5.453125 C 1.109375 -5.867188 0.875 -6.453125 0.875 -7.203125 C 0.875 -7.628906 0.953125 -8.007812 1.109375 -8.34375 C 1.265625 -8.675781 1.484375 -8.953125 1.765625 -9.171875 C 2.046875 -9.398438 2.382812 -9.570312 2.78125 -9.6875 C 3.175781 -9.800781 3.609375 -9.859375 4.078125 -9.859375 C 4.816406 -9.859375 5.445312 -9.722656 5.96875 -9.453125 C 6.488281 -9.191406 6.929688 -8.800781 7.296875 -8.28125 L 6.421875 -7.640625 C 6.148438 -8.015625 5.820312 -8.304688 5.4375 -8.515625 C 5.0625 -8.722656 4.59375 -8.828125 4.03125 -8.828125 C 3.40625 -8.828125 2.914062 -8.695312 2.5625 -8.4375 C 2.207031 -8.175781 2.03125 -7.78125 2.03125 -7.25 C 2.03125 -6.789062 2.179688 -6.441406 2.484375 -6.203125 C 2.785156 -5.960938 3.238281 -5.773438 3.84375 -5.640625 L 4.640625 -5.453125 C 5.585938 -5.242188 6.273438 -4.921875 6.703125 -4.484375 C 7.128906 -4.046875 7.34375 -3.46875 7.34375 -2.75 C 7.34375 -2.300781 7.265625 -1.894531 7.109375 -1.53125 C 6.960938 -1.175781 6.742188 -0.875 6.453125 -0.625 C 6.171875 -0.375 5.820312 -0.175781 5.40625 -0.03125 C 5 0.101562 4.535156 0.171875 4.015625 0.171875 Z M 4.015625 0.171875 "/></g></g></g><g fill="#ffffff" fill-opacity="1"><g transform="translate(287.257253, 210.671567)"><g><path d="M 1.1875 -7.171875 L 2.296875 -7.171875 L 2.296875 -6 L 2.34375 -6 C 2.53125 -6.457031 2.800781 -6.789062 3.15625 -7 C 3.507812 -7.21875 3.9375 -7.328125 4.4375 -7.328125 C 4.882812 -7.328125 5.285156 -7.238281 5.640625 -7.0625 C 6.003906 -6.894531 6.3125 -6.644531 6.5625 -6.3125 C 6.820312 -5.988281 7.019531 -5.59375 7.15625 -5.125 C 7.289062 -4.664062 7.359375 -4.148438 7.359375 -3.578125 C 7.359375 -3.003906 7.289062 -2.484375 7.15625 -2.015625 C 7.019531 -1.554688 6.820312 -1.164062 6.5625 -0.84375 C 6.3125 -0.519531 6.003906 -0.269531 5.640625 -0.09375 C 5.285156 0.0820312 4.882812 0.171875 4.4375 0.171875 C 3.46875 0.171875 2.769531 -0.273438 2.34375 -1.171875 L 2.296875 -1.171875 L 2.296875 2.78125 L 1.1875 2.78125 Z M 4.140625 -0.828125 C 4.765625 -0.828125 5.257812 -1.023438 5.625 -1.421875 C 5.988281 -1.816406 6.171875 -2.332031 6.171875 -2.96875 L 6.171875 -4.1875 C 6.171875 -4.832031 5.988281 -5.347656 5.625 -5.734375 C 5.257812 -6.128906 4.765625 -6.328125 4.140625 -6.328125 C 3.890625 -6.328125 3.648438 -6.289062 3.421875 -6.21875 C 3.191406 -6.15625 2.992188 -6.0625 2.828125 -5.9375 C 2.660156 -5.820312 2.53125 -5.675781 2.4375 -5.5 C 2.34375 -5.332031 2.296875 -5.148438 2.296875 -4.953125 L 2.296875 -2.296875 C 2.296875 -2.054688 2.34375 -1.847656 2.4375 -1.671875 C 2.53125 -1.492188 2.660156 -1.34375 2.828125 -1.21875 C 2.992188 -1.09375 3.191406 -0.992188 3.421875 -0.921875 C 3.648438 -0.859375 3.890625 -0.828125 4.140625 -0.828125 Z M 4.140625 -0.828125 "/></g></g></g><g fill="#ffffff" fill-opacity="1"><g transform="translate(295.315668, 210.671567)"><g><path d="M 6.390625 0 C 5.972656 0 5.671875 -0.109375 5.484375 -0.328125 C 5.304688 -0.554688 5.195312 -0.835938 5.15625 -1.171875 L 5.078125 -1.171875 C 4.921875 -0.722656 4.660156 -0.382812 4.296875 -0.15625 C 3.941406 0.0625 3.515625 0.171875 3.015625 0.171875 C 2.253906 0.171875 1.660156 -0.0195312 1.234375 -0.40625 C 0.816406 -0.800781 0.609375 -1.332031 0.609375 -2 C 0.609375 -2.675781 0.851562 -3.191406 1.34375 -3.546875 C 1.84375 -3.910156 2.617188 -4.09375 3.671875 -4.09375 L 5.078125 -4.09375 L 5.078125 -4.8125 C 5.078125 -5.3125 4.9375 -5.695312 4.65625 -5.96875 C 4.382812 -6.238281 3.960938 -6.375 3.390625 -6.375 C 2.953125 -6.375 2.585938 -6.273438 2.296875 -6.078125 C 2.003906 -5.890625 1.757812 -5.632812 1.5625 -5.3125 L 0.90625 -5.9375 C 1.09375 -6.320312 1.398438 -6.648438 1.828125 -6.921875 C 2.253906 -7.191406 2.789062 -7.328125 3.4375 -7.328125 C 4.3125 -7.328125 4.988281 -7.113281 5.46875 -6.6875 C 5.945312 -6.269531 6.1875 -5.679688 6.1875 -4.921875 L 6.1875 -0.96875 L 7.015625 -0.96875 L 7.015625 0 Z M 3.1875 -0.78125 C 3.46875 -0.78125 3.722656 -0.8125 3.953125 -0.875 C 4.191406 -0.9375 4.394531 -1.023438 4.5625 -1.140625 C 4.726562 -1.265625 4.851562 -1.40625 4.9375 -1.5625 C 5.03125 -1.726562 5.078125 -1.898438 5.078125 -2.078125 L 5.078125 -3.265625 L 3.609375 -3.265625 C 2.972656 -3.265625 2.507812 -3.171875 2.21875 -2.984375 C 1.925781 -2.796875 1.78125 -2.53125 1.78125 -2.1875 L 1.78125 -1.890625 C 1.78125 -1.535156 1.90625 -1.257812 2.15625 -1.0625 C 2.414062 -0.875 2.757812 -0.78125 3.1875 -0.78125 Z M 3.1875 -0.78125 "/></g></g></g><g fill="#ffffff" fill-opacity="1"><g transform="translate(302.73496, 210.671567)"><g><path d="M 3.84375 0.171875 C 3.34375 0.171875 2.894531 0.0820312 2.5 -0.09375 C 2.101562 -0.269531 1.765625 -0.519531 1.484375 -0.84375 C 1.210938 -1.164062 1.003906 -1.554688 0.859375 -2.015625 C 0.722656 -2.484375 0.65625 -3.003906 0.65625 -3.578125 C 0.65625 -4.148438 0.722656 -4.664062 0.859375 -5.125 C 1.003906 -5.59375 1.210938 -5.988281 1.484375 -6.3125 C 1.765625 -6.644531 2.101562 -6.894531 2.5 -7.0625 C 2.894531 -7.238281 3.34375 -7.328125 3.84375 -7.328125 C 4.5625 -7.328125 5.132812 -7.171875 5.5625 -6.859375 C 5.988281 -6.554688 6.3125 -6.15625 6.53125 -5.65625 L 5.59375 -5.1875 C 5.46875 -5.550781 5.253906 -5.832031 4.953125 -6.03125 C 4.660156 -6.238281 4.289062 -6.34375 3.84375 -6.34375 C 3.507812 -6.34375 3.21875 -6.289062 2.96875 -6.1875 C 2.71875 -6.082031 2.507812 -5.929688 2.34375 -5.734375 C 2.175781 -5.546875 2.050781 -5.320312 1.96875 -5.0625 C 1.882812 -4.800781 1.84375 -4.507812 1.84375 -4.1875 L 1.84375 -2.96875 C 1.84375 -2.34375 2.007812 -1.828125 2.34375 -1.421875 C 2.6875 -1.015625 3.1875 -0.8125 3.84375 -0.8125 C 4.738281 -0.8125 5.390625 -1.226562 5.796875 -2.0625 L 6.59375 -1.53125 C 6.363281 -1.007812 6.019531 -0.59375 5.5625 -0.28125 C 5.101562 0.0195312 4.53125 0.171875 3.84375 0.171875 Z M 3.84375 0.171875 "/></g></g></g><g fill="#ffffff" fill-opacity="1"><g transform="translate(309.723552, 210.671567)"><g><path d="M 3.875 0.171875 C 3.382812 0.171875 2.941406 0.0820312 2.546875 -0.09375 C 2.148438 -0.269531 1.8125 -0.519531 1.53125 -0.84375 C 1.25 -1.175781 1.03125 -1.570312 0.875 -2.03125 C 0.726562 -2.488281 0.65625 -3.003906 0.65625 -3.578125 C 0.65625 -4.148438 0.726562 -4.664062 0.875 -5.125 C 1.03125 -5.582031 1.25 -5.976562 1.53125 -6.3125 C 1.8125 -6.644531 2.148438 -6.894531 2.546875 -7.0625 C 2.941406 -7.238281 3.382812 -7.328125 3.875 -7.328125 C 4.351562 -7.328125 4.78125 -7.238281 5.15625 -7.0625 C 5.539062 -6.894531 5.867188 -6.65625 6.140625 -6.34375 C 6.410156 -6.03125 6.613281 -5.660156 6.75 -5.234375 C 6.894531 -4.804688 6.96875 -4.335938 6.96875 -3.828125 L 6.96875 -3.3125 L 1.8125 -3.3125 L 1.8125 -2.96875 C 1.8125 -2.664062 1.859375 -2.378906 1.953125 -2.109375 C 2.054688 -1.847656 2.195312 -1.617188 2.375 -1.421875 C 2.5625 -1.234375 2.785156 -1.082031 3.046875 -0.96875 C 3.304688 -0.863281 3.601562 -0.8125 3.9375 -0.8125 C 4.394531 -0.8125 4.789062 -0.914062 5.125 -1.125 C 5.46875 -1.332031 5.734375 -1.640625 5.921875 -2.046875 L 6.703125 -1.46875 C 6.472656 -0.976562 6.113281 -0.582031 5.625 -0.28125 C 5.132812 0.0195312 4.550781 0.171875 3.875 0.171875 Z M 3.875 -6.40625 C 3.570312 -6.40625 3.296875 -6.347656 3.046875 -6.234375 C 2.796875 -6.128906 2.578125 -5.976562 2.390625 -5.78125 C 2.210938 -5.59375 2.070312 -5.363281 1.96875 -5.09375 C 1.863281 -4.832031 1.8125 -4.546875 1.8125 -4.234375 L 1.8125 -4.140625 L 5.78125 -4.140625 L 5.78125 -4.296875 C 5.78125 -4.929688 5.601562 -5.441406 5.25 -5.828125 C 4.90625 -6.210938 4.445312 -6.40625 3.875 -6.40625 Z M 3.875 -6.40625 "/></g></g></g><g fill="#ffffff" fill-opacity="1"><g transform="translate(317.351251, 210.671567)"><g><path d="M 1.890625 0.171875 C 1.585938 0.171875 1.367188 0.0976562 1.234375 -0.046875 C 1.109375 -0.203125 1.046875 -0.398438 1.046875 -0.640625 L 1.046875 -0.8125 C 1.046875 -1.0625 1.109375 -1.257812 1.234375 -1.40625 C 1.367188 -1.550781 1.585938 -1.625 1.890625 -1.625 C 2.179688 -1.625 2.394531 -1.550781 2.53125 -1.40625 C 2.664062 -1.257812 2.734375 -1.0625 2.734375 -0.8125 L 2.734375 -0.640625 C 2.734375 -0.398438 2.664062 -0.203125 2.53125 -0.046875 C 2.394531 0.0976562 2.179688 0.171875 1.890625 0.171875 Z M 1.890625 0.171875 "/></g></g></g></svg>